# xmcd CD database file
#
# Track frame offsets:
#	150
#	37729
#	75821
#	102045
#	160023
#	192671
#	236570
#	273310
#
# Disc length: 3990 seconds
#
# Revision: 0
# Processed by: cddbd v1.5.2PL0 Copyright (c) Steve Scherf et al.
# Submitted via: CDex 1.70beta2
#
DISCID=520f9408
DTITLE=Art Blakey - 3 Originals CD2
DYEAR=2010
DGENRE=Jazz
TTITLE0=Drum Suite - Nica's Tempo
TTITLE1=Drum Suite - D's Dilemma
TTITLE2=Drum Suite - Just For Marty
TTITLE3=A Night In Tunisia - A Night in Tunisia
TTITLE4=A Night In Tunisia - Off The Wall
TTITLE5=A Night In Tunisia - Theory Of Art
TTITLE6=A Night In Tunisia - Couldn't It Be You
TTITLE7=A Night In Tunisia - Evans
EXTD=YEAR: 2010
EXTT0=
EXTT1=
EXTT2=
EXTT3=
EXTT4=
EXTT5=
EXTT6=
EXTT7=
PLAYORDER=
